<svg width="176" height="163" viewBox="0 0 176 163" fill="none" xmlns="http://www.w3.org/2000/svg">
<path d="M77.3267 29.6494C67.8971 29.6494 58.6788 32.4458 50.8384 37.6846C42.998 42.9234 36.8873 50.3702 33.2788 59.082C29.6704 67.7937 28.7264 77.3797 30.5659 86.6279C32.4055 95.8764 36.946 104.372 43.6138 111.04C50.2815 117.708 58.7774 122.248 68.0259 124.088C77.2741 125.927 86.8601 124.983 95.5718 121.375C104.284 117.766 111.73 111.655 116.969 103.814C122.208 95.9742 125.004 86.7565 125.004 77.3271H154.654C154.654 92.6208 150.118 107.571 141.622 120.287C141.401 120.618 141.175 120.945 140.95 121.271L170.624 140.625C175.249 143.642 176.553 149.838 173.537 154.464L170.926 158.467C167.909 163.093 161.713 164.397 157.087 161.38L123.412 139.416C118.344 143.177 112.811 146.327 106.918 148.768C92.7888 154.62 77.2406 156.152 62.2407 153.168C47.2409 150.184 33.4632 142.819 22.6489 132.005C11.8347 121.191 4.46956 107.413 1.48583 92.4131C-1.49784 77.4132 0.0335558 61.865 5.88622 47.7354C11.7389 33.6057 21.6503 21.529 34.3667 13.0322C47.083 4.53554 62.033 2.88731e-05 77.3267 0V29.6494Z" fill="#007EBE"/>
<path d="M79.7436 100.214L47.5874 68.0579L62.2415 53.4038L79.7436 70.9576L130.904 19.7458L145.558 34.4L79.7436 100.214Z" fill="#00950F"/>
</svg>
