<svg width="101" height="19" viewBox="0 0 101 19" fill="none" xmlns="http://www.w3.org/2000/svg">
<path d="M8.69052 3.33203C7.63087 3.33203 6.59505 3.64669 5.71396 4.23535C4.83288 4.82407 4.14588 5.66067 3.74033 6.63965C3.3348 7.61868 3.22892 8.69602 3.43564 9.73535C3.64235 10.7746 4.15227 11.7292 4.90146 12.4785C5.65071 13.2278 6.6054 13.7385 7.64462 13.9453C8.68384 14.152 9.76138 14.046 10.7403 13.6406C11.7194 13.2351 12.5568 12.5481 13.1456 11.667C13.7343 10.7859 14.0479 9.75005 14.0479 8.69043H17.381C17.3809 10.4091 16.871 12.0895 15.9161 13.5186C15.8913 13.5557 15.8643 13.5912 15.839 13.6279L19.1749 15.8037C19.6948 16.1428 19.8411 16.8395 19.502 17.3594L19.2091 17.8086C18.87 18.3285 18.1733 18.4758 17.6534 18.1367L13.8673 15.667C13.298 16.0894 12.6776 16.4446 12.0157 16.7188C10.4279 17.3764 8.68081 17.5491 6.99521 17.2139C5.30947 16.8786 3.76036 16.0503 2.54501 14.835C1.32985 13.6197 0.502386 12.0713 0.167083 10.3857C-0.168231 8.7 0.00348141 6.95219 0.661224 5.36426C1.31897 3.77643 2.43337 2.4197 3.8624 1.46484C5.2915 0.50995 6.97176 7.51296e-08 8.69052 0V3.33203Z" fill="#007EBE"/>
<path d="M8.96245 11.2624L5.34863 7.64855L6.99551 6.00168L8.96245 7.97444L14.712 2.2191L16.3588 3.86598L8.96245 11.2624Z" fill="#00950F"/>
<path d="M31.0362 12.6521C31.7661 12.6521 32.4154 12.5503 32.9839 12.3468C33.5525 12.1362 33.9701 11.9292 34.2368 11.7256L35.3634 13.9682C35.0405 14.249 34.4825 14.5332 33.6894 14.821C32.9032 15.1088 31.9627 15.2527 30.8677 15.2527C29.8429 15.2527 28.8848 15.0737 27.9934 14.7157C27.102 14.3507 26.3193 13.8454 25.6455 13.1996C24.9717 12.5468 24.4452 11.7853 24.0662 10.9149C23.6872 10.0375 23.4977 9.08994 23.4977 8.07217C23.4977 7.05441 23.6837 6.10683 24.0557 5.22945C24.4347 4.34504 24.9611 3.57646 25.635 2.92368C26.3088 2.27091 27.0914 1.76202 27.9829 1.39703C28.8813 1.03204 29.8429 0.849544 30.8677 0.849544C31.9627 0.849544 32.9032 0.993435 33.6894 1.28122C34.4825 1.569 35.0405 1.85327 35.3634 2.13404L34.2368 4.37663C33.9701 4.17308 33.5525 3.96952 32.9839 3.76597C32.4154 3.5554 31.7661 3.45011 31.0362 3.45011C30.2921 3.45011 29.6288 3.56944 29.0462 3.80808C28.4707 4.04673 27.9793 4.38014 27.5722 4.8083C27.1721 5.22945 26.8668 5.71727 26.6562 6.27178C26.4457 6.82629 26.3404 7.41589 26.3404 8.04059C26.3404 8.6723 26.4457 9.26893 26.6562 9.83045C26.8668 10.385 27.1721 10.8763 27.5722 11.3045C27.9793 11.7256 28.4707 12.0555 29.0462 12.2941C29.6288 12.5328 30.2921 12.6521 31.0362 12.6521ZM39.3569 11.2729C39.3779 11.6659 39.4832 12.0169 39.6727 12.3257C39.8623 12.6346 40.136 12.8767 40.494 13.0522C40.859 13.2277 41.2941 13.3154 41.7995 13.3154C42.2558 13.3154 42.6558 13.2593 42.9998 13.147C43.3507 13.0347 43.6455 12.8978 43.8842 12.7363C44.1299 12.5679 44.3123 12.4065 44.4317 12.252L45.5372 13.8945C45.3406 14.1402 45.0774 14.3683 44.7475 14.5789C44.4247 14.7824 44.0105 14.9438 43.5052 15.0632C43.0068 15.1895 42.3821 15.2527 41.6311 15.2527C40.6835 15.2527 39.8517 15.0667 39.1358 14.6947C38.4198 14.3227 37.8618 13.7857 37.4617 13.0838C37.0616 12.3819 36.8616 11.5466 36.8616 10.578C36.8616 9.73569 37.0406 8.97763 37.3986 8.3038C37.7565 7.62295 38.2759 7.08599 38.9568 6.69292C39.6447 6.29986 40.4694 6.10332 41.431 6.10332C42.3365 6.10332 43.1191 6.2788 43.7789 6.62975C44.4457 6.97369 44.9616 7.47906 45.3266 8.14587C45.6916 8.81269 45.8741 9.6269 45.8741 10.5885C45.8741 10.6447 45.8706 10.7605 45.8636 10.936C45.8636 11.1044 45.8565 11.2167 45.8425 11.2729H39.3569ZM43.3683 9.61988C43.3613 9.39527 43.2911 9.15311 43.1577 8.8934C43.0314 8.6337 42.8313 8.4126 42.5576 8.2301C42.2838 8.04761 41.9188 7.95636 41.4626 7.95636C41.0064 7.95636 40.6308 8.0441 40.336 8.21957C40.0483 8.39505 39.8307 8.61264 39.6833 8.87235C39.5359 9.12503 39.4516 9.37421 39.4306 9.61988H43.3683ZM53.3338 6.35601H56.4081L52.1862 10.4832L56.7872 15H53.6391L50.0488 11.3887V15H47.3746V0.512629H50.0488V9.52512L53.3338 6.35601ZM64.9562 15H61.9556L56.9545 1.10223H59.913L63.4612 11.694L67.0093 1.10223H69.9678L64.9562 15ZM71.7529 15V6.35601H74.4167V15H71.7529ZM73.1216 4.12394C72.6794 4.12394 72.3039 3.96952 71.9951 3.66068C71.6933 3.35185 71.5424 2.98334 71.5424 2.55518C71.5424 2.12702 71.6968 1.75501 72.0056 1.43915C72.3144 1.12329 72.6865 0.965359 73.1216 0.965359C73.4094 0.965359 73.6726 1.03906 73.9113 1.18646C74.1499 1.32684 74.343 1.51636 74.4904 1.75501C74.6378 1.99365 74.7115 2.26038 74.7115 2.55518C74.7115 2.98334 74.5535 3.35185 74.2377 3.66068C73.9288 3.96952 73.5568 4.12394 73.1216 4.12394ZM79.3445 15H76.6703V6.35601H79.3445V7.75631H79.2919C79.341 7.58786 79.4744 7.37378 79.692 7.11407C79.9166 6.85436 80.2254 6.62273 80.6185 6.41918C81.0116 6.20861 81.4854 6.10332 82.0399 6.10332C82.44 6.10332 82.8014 6.16298 83.1243 6.28231C83.4542 6.39461 83.6894 6.50692 83.8297 6.61922L82.7769 8.80918C82.6856 8.69687 82.5137 8.58106 82.261 8.46173C82.0153 8.34241 81.7065 8.28275 81.3345 8.28275C80.8923 8.28275 80.5238 8.40558 80.229 8.65125C79.9342 8.8899 79.713 9.1847 79.5656 9.53565C79.4182 9.87958 79.3445 10.2025 79.3445 10.5043V15ZM91.4238 15V13.4944C91.3607 13.6488 91.1992 13.8664 90.9395 14.1472C90.6798 14.4279 90.3289 14.6841 89.8867 14.9158C89.4515 15.1404 88.9391 15.2527 88.3495 15.2527C87.5212 15.2527 86.7877 15.0562 86.149 14.6631C85.5103 14.263 85.0084 13.719 84.6434 13.0311C84.2854 12.3363 84.1064 11.5536 84.1064 10.6833C84.1064 9.8129 84.2854 9.03379 84.6434 8.34592C85.0084 7.65103 85.5103 7.10354 86.149 6.70345C86.7877 6.30337 87.5212 6.10332 88.3495 6.10332C88.925 6.10332 89.4234 6.20159 89.8445 6.39812C90.2727 6.58764 90.6166 6.81225 90.8763 7.07195C91.1431 7.32464 91.315 7.55276 91.3922 7.75631V6.35601H94.0455V15H91.4238ZM86.7281 10.6833C86.7281 11.1676 86.8369 11.5957 87.0545 11.9678C87.272 12.3328 87.5598 12.617 87.9178 12.8206C88.2758 13.0241 88.6653 13.1259 89.0865 13.1259C89.5287 13.1259 89.9217 13.0241 90.2657 12.8206C90.6096 12.61 90.8799 12.3222 91.0764 11.9572C91.2799 11.5852 91.3817 11.1606 91.3817 10.6833C91.3817 10.206 91.2799 9.78483 91.0764 9.41984C90.8799 9.04782 90.6096 8.75653 90.2657 8.54596C89.9217 8.33539 89.5287 8.2301 89.0865 8.2301C88.6653 8.2301 88.2758 8.33539 87.9178 8.54596C87.5598 8.74951 87.272 9.0373 87.0545 9.40931C86.8369 9.7743 86.7281 10.199 86.7281 10.6833ZM98.9467 15H96.2619V0.512629H98.9467V15Z" fill="url(#paint0_linear_160_52)"/>
<defs>
<linearGradient id="paint0_linear_160_52" x1="22.5889" y1="9.5" x2="100.589" y2="9.5" gradientUnits="userSpaceOnUse">
<stop stop-color="#007EBE"/>
<stop offset="1" stop-color="#00950F"/>
</linearGradient>
</defs>
</svg>
